<svg id="Layer_1" data-name="Layer 1" xmlns="http://www.w3.org/2000/svg" viewBox="0 0 122.88 121.83"><defs><style>.cls-1,.cls-2{fill-rule:evenodd;}.cls-2{fill:red;}.cls-3{fill:#fff;}</style></defs><title>cdr</title><path class="cls-1" d="M102.42,37H81.92a8.52,8.52,0,0,1-8.85-8.7V7.53H21a.58.58,0,0,0-.41.18.45.45,0,0,0-.18.42V113.71a.7.7,0,0,0,.18.41.51.51,0,0,0,.41.18h80.84c.18,0,.17-.09.26-.18s.34-.28.34-.41V37Zm7.47,79.08a5.77,5.77,0,0,1-5.76,5.76H18.66a5.77,5.77,0,0,1-5.76-5.76V5.76a5.7,5.7,0,0,1,1.69-4.07A5.77,5.77,0,0,1,18.66,0H76.9a4.22,4.22,0,0,1,2.46.82l29.75,30.12a2.57,2.57,0,0,1,.78,2.6v82.53ZM80,27.69,79.57,9.63,100.66,31l-18.14-.81A2.4,2.4,0,0,1,80,27.69Z"/><path class="cls-2" d="M6.71,46.28H116.17A6.73,6.73,0,0,1,122.88,53v45.1a6.73,6.73,0,0,1-6.71,6.71H6.71A6.73,6.73,0,0,1,0,98.09V53a6.73,6.73,0,0,1,6.71-6.71Z"/><path class="cls-3" d="M33.94,78.4,42.48,81a15.69,15.69,0,0,1-2.72,6,11.72,11.72,0,0,1-4.59,3.64,17.33,17.33,0,0,1-7,1.22,20.4,20.4,0,0,1-8.41-1.49,13.39,13.39,0,0,1-5.62-5.25,17.79,17.79,0,0,1-2.37-9.62q0-7.81,4.16-12t11.78-4.2q6,0,9.38,2.41a14.16,14.16,0,0,1,5.06,7.4L33.58,71a7.28,7.28,0,0,0-.94-2.09,5.68,5.68,0,0,0-2-1.71,5.77,5.77,0,0,0-2.65-.6,5.74,5.74,0,0,0-5.08,2.65q-1.33,2-1.34,6.2,0,5.24,1.6,7.17a5.44,5.44,0,0,0,4.47,1.94A5.43,5.43,0,0,0,31.86,83a9.79,9.79,0,0,0,2.08-4.55ZM46.58,59.78H61.06A17.41,17.41,0,0,1,68,60.94a11.26,11.26,0,0,1,4.36,3.33,14,14,0,0,1,2.49,5,23.36,23.36,0,0,1,.78,6.11,21.13,21.13,0,0,1-1.16,7.84,12.77,12.77,0,0,1-3.19,4.66,10.27,10.27,0,0,1-4.39,2.51,22.26,22.26,0,0,1-5.8.86H46.58V59.78Zm9.73,7.13V84.13H58.7a10.16,10.16,0,0,0,4.36-.68,4.67,4.67,0,0,0,2-2.36,14.84,14.84,0,0,0,.73-5.48c0-3.34-.54-5.62-1.64-6.85s-2.9-1.85-5.43-1.85ZM80.09,91.3V59.78H96.33a23.38,23.38,0,0,1,6.89.77,7.42,7.42,0,0,1,3.86,2.87,8.83,8.83,0,0,1,1.46,5.13,8.74,8.74,0,0,1-1.13,4.52,8.55,8.55,0,0,1-3.08,3.1,11.8,11.8,0,0,1-3.42,1.25,9.5,9.5,0,0,1,2.53,1.16A9.32,9.32,0,0,1,105,80.24a11.61,11.61,0,0,1,1.36,2l4.73,9.1h-11l-5.2-9.61a7.38,7.38,0,0,0-1.76-2.43,4.19,4.19,0,0,0-2.39-.73h-.86V91.3Zm9.78-18.71H94a15.41,15.41,0,0,0,2.59-.43,2.6,2.6,0,0,0,1.58-1,3,3,0,0,0,.61-1.84,2.9,2.9,0,0,0-1-2.35c-.64-.55-1.85-.82-3.64-.82H89.87v6.43Z"/></svg>